<svg fill="#303030" xmlns="http://www.w3.org/2000/svg" viewBox="0 0 24 24" width="48px" height="48px">
    <path d="M 12 1.8125 L 11.5 2.09375 C 11.300781 2.195313 7.800781 4.289063 6 7.1875 L 6 5 C 6 3.300781 4.699219 2 3 2 L 3 4 C 3.601563 4 4 4.398438 4 5 L 4 5.1875 C 3.699219 5.085938 3.300781 5 3 5 L 3 7 C 3.5 7 3.992188 7.613281 4.09375 7.8125 C 4.195313 8.511719 4.414063 9.101563 4.8125 9.5 C 4.914063 9.601563 4.992188 9.6875 5.09375 9.6875 C 4.992188 9.988281 5 10.898438 5 11 C 5 16.5 4.199219 19.5 2 22 L 22 22 C 19.800781 19.5 19 16.5 19 11 C 19 10.898438 19.007813 9.988281 18.90625 9.6875 C 19.007813 9.585938 19.085938 9.601563 19.1875 9.5 C 19.585938 9.101563 19.804688 8.511719 19.90625 7.8125 C 20.007813 7.613281 20.5 7 21 7 L 21 5 C 20.699219 5 20.300781 5.085938 20 5.1875 L 20 5 C 20 4.398438 20.398438 4 21 4 L 21 2 C 19.300781 2 18 3.300781 18 5 L 18 7.1875 C 16.199219 4.1875 12.699219 2.195313 12.5 2.09375 Z M 12 4.1875 C 13.601563 5.1875 16.507813 7.601563 16.90625 10 L 7.09375 10 C 7.492188 7.601563 10.398438 5.1875 12 4.1875 Z M 7.09375 12 L 17 12 C 16.601563 16.101563 14.898438 20 12 20 C 9.199219 20 7.394531 16.101563 7.09375 12 Z M 8.3125 13 C 8.3125 13 8.398438 14.199219 9 14.5 C 10.398438 15.101563 11 13.6875 11 13.6875 Z M 15.59375 13 L 13 13.6875 C 13 13.6875 13.699219 15.300781 15 14.5 C 15.601563 14.101563 15.59375 13 15.59375 13 Z"/>
</svg>